HIERARCHY
ROOT Hips
{
	OFFSET 0.000000 103.266502 0.000000
	CHANNELS 6 Xposition Yposition Zposition Xrotation Yrotation Zrotation 
	JOINT Spine
	{
		OFFSET -0.002400 12.777504 0.315300
		CHANNELS 3 Xrotation Yrotation Zrotation
		JOINT Spine1
		{
			OFFSET -0.002067 5.816869 0.032633
			CHANNELS 3 Xrotation Yrotation Zrotation
			JOINT Spine1_split
			{
				OFFSET -0.002067 5.816869 0.032633
				CHANNELS 3 Xrotation Yrotation Zrotation
				JOINT Spine2
				{
					OFFSET -0.002067 5.816869 0.032633
					CHANNELS 3 Xrotation Yrotation Zrotation
					JOINT Neck
					{
						OFFSET -0.003700 21.199493 -0.826900
						CHANNELS 3 Xrotation Yrotation Zrotation
						JOINT Head
						{
							OFFSET 0.000000 20.442200 4.834800
							CHANNELS 3 Xrotation Yrotation Zrotation
							JOINT HeadTop_End
							{
								OFFSET 0.000000 34.668396 4.968400
								CHANNELS 3 Xrotation Yrotation Zrotation
								End Site
								{
									OFFSET 0.000000 0.000000 0.000000
								}
							}
						}
					}
					JOINT LeftShoulder
					{
						OFFSET 3.288150 8.794197 -1.372250
						CHANNELS 3 Xrotation Yrotation Zrotation
						JOINT LeftShoulder_split
						{
							OFFSET 3.288150 8.794197 -1.372250
							CHANNELS 3 Xrotation Yrotation Zrotation
							JOINT LeftArm
							{
								OFFSET 11.953299 -2.279007 -0.146200
								CHANNELS 3 Xrotation Yrotation Zrotation
								JOINT LeftForeArm
								{
									OFFSET 18.448900 0.000000 0.000000
									CHANNELS 3 Xrotation Yrotation Zrotation
									JOINT LeftHand
									{
										OFFSET 29.527798 0.000000 0.000000
										CHANNELS 3 Xrotation Yrotation Zrotation
										JOINT LeftHandThumb1
										{
											OFFSET 10.739754 -2.369614 9.225399
											CHANNELS 3 Xrotation Yrotation Zrotation
											JOINT LeftHandThumb2
											{
												OFFSET 4.926170 -2.844131 2.844125
												CHANNELS 3 Xrotation Yrotation Zrotation
												JOINT LeftHandThumb3
												{
													OFFSET 4.614891 -2.664413 2.664409
													CHANNELS 3 Xrotation Yrotation Zrotation
													JOINT LeftHandThumb4
													{
														OFFSET 4.432465 -2.559082 2.559083
														CHANNELS 3 Xrotation Yrotation Zrotation
														End Site
														{
															OFFSET 0.000000 0.000000 0.000000
														}
													}
												}
											}
										}
										JOINT LeftHandIndex1
										{
											OFFSET 26.467674 0.187653 6.405298
											CHANNELS 3 Xrotation Yrotation Zrotation
											JOINT LeftHandIndex2
											{
												OFFSET 8.792900 0.000000 0.000000
												CHANNELS 3 Xrotation Yrotation Zrotation
												JOINT LeftHandIndex3
												{
													OFFSET 10.075203 0.000000 0.000000
													CHANNELS 3 Xrotation Yrotation Zrotation
													End Site
													{
														OFFSET 0.000000 0.000000 0.000000
													}
												}
											}
										}
										JOINT LeftHandMiddle1
										{
											OFFSET 25.764404 0.000000 0.000000
											CHANNELS 3 Xrotation Yrotation Zrotation
											JOINT LeftHandMiddle2
											{
												OFFSET 9.393974 0.000000 0.000000
												CHANNELS 3 Xrotation Yrotation Zrotation
												JOINT LeftHandMiddle3
												{
													OFFSET 10.771950 0.000000 0.000000
													CHANNELS 3 Xrotation Yrotation Zrotation
													End Site
													{
														OFFSET 0.000000 0.000000 0.000000
													}
												}
											}
										}
										JOINT LeftHandRing1
										{
											OFFSET 24.660927 0.144547 -6.225808
											CHANNELS 3 Xrotation Yrotation Zrotation
											JOINT LeftHandRing2
											{
												OFFSET 9.393799 0.000000 0.000000
												CHANNELS 3 Xrotation Yrotation Zrotation
												JOINT LeftHandRing3
												{
													OFFSET 9.928497 0.000000 0.000000
													CHANNELS 3 Xrotation Yrotation Zrotation
													End Site
													{
														OFFSET 0.000000 0.000000 0.000000
													}
												}
											}
										}
										JOINT LeftHandPinky1
										{
											OFFSET 23.655350 0.125290 -12.815412
											CHANNELS 3 Xrotation Yrotation Zrotation
											JOINT LeftHandPinky2
											{
												OFFSET 8.425102 0.000000 0.000000
												CHANNELS 3 Xrotation Yrotation Zrotation
												JOINT LeftHandPinky3
												{
													OFFSET 8.147003 0.000000 0.000000
													CHANNELS 3 Xrotation Yrotation Zrotation
													End Site
													{
														OFFSET 0.000000 0.000000 0.000000
													}
												}
											}
										}
									}
								}
							}
						}
					}
					JOINT RightShoulder
					{
						OFFSET -3.249400 8.794197 -1.372250
						CHANNELS 3 Xrotation Yrotation Zrotation
						JOINT RightShoulder_split
						{
							OFFSET -3.249400 8.794197 -1.372250
							CHANNELS 3 Xrotation Yrotation Zrotation
							JOINT RightArm
							{
								OFFSET -11.953299 -2.279007 -0.146200
								CHANNELS 3 Xrotation Yrotation Zrotation
								JOINT RightForeArm
								{
									OFFSET -18.448900 0.000000 0.000000
									CHANNELS 3 Xrotation Yrotation Zrotation
									JOINT RightHand
									{
										OFFSET -29.527802 0.000000 0.000000
										CHANNELS 3 Xrotation Yrotation Zrotation
										JOINT RightHandThumb1
										{
											OFFSET -10.739754 -2.369614 9.225399
											CHANNELS 3 Xrotation Yrotation Zrotation
											JOINT RightHandThumb2
											{
												OFFSET -4.926170 -2.844131 2.844125
												CHANNELS 3 Xrotation Yrotation Zrotation
												JOINT RightHandThumb3
												{
													OFFSET -4.614891 -2.664413 2.664409
													CHANNELS 3 Xrotation Yrotation Zrotation
													JOINT RightHandThumb4
													{
														OFFSET -4.432465 -2.559082 2.559083
														CHANNELS 3 Xrotation Yrotation Zrotation
														End Site
														{
															OFFSET 0.000000 0.000000 0.000000
														}
													}
												}
											}
										}
										JOINT RightHandIndex1
										{
											OFFSET -26.467674 0.187653 6.405298
											CHANNELS 3 Xrotation Yrotation Zrotation
											JOINT RightHandIndex2
											{
												OFFSET -8.792900 0.000000 0.000000
												CHANNELS 3 Xrotation Yrotation Zrotation
												JOINT RightHandIndex3
												{
													OFFSET -10.075203 0.000000 0.000000
													CHANNELS 3 Xrotation Yrotation Zrotation
													End Site
													{
														OFFSET 0.000000 0.000000 0.000000
													}
												}
											}
										}
										JOINT RightHandMiddle1
										{
											OFFSET -25.764404 0.000000 0.000000
											CHANNELS 3 Xrotation Yrotation Zrotation
											JOINT RightHandMiddle2
											{
												OFFSET -9.393974 0.000000 0.000000
												CHANNELS 3 Xrotation Yrotation Zrotation
												JOINT RightHandMiddle3
												{
													OFFSET -10.771950 0.000000 0.000000
													CHANNELS 3 Xrotation Yrotation Zrotation
													End Site
													{
														OFFSET 0.000000 0.000000 0.000000
													}
												}
											}
										}
										JOINT RightHandRing1
										{
											OFFSET -24.660927 0.144547 -6.225808
											CHANNELS 3 Xrotation Yrotation Zrotation
											JOINT RightHandRing2
											{
												OFFSET -9.393799 0.000000 0.000000
												CHANNELS 3 Xrotation Yrotation Zrotation
												JOINT RightHandRing3
												{
													OFFSET -9.928497 0.000000 0.000000
													CHANNELS 3 Xrotation Yrotation Zrotation
													End Site
													{
														OFFSET 0.000000 0.000000 0.000000
													}
												}
											}
										}
										JOINT RightHandPinky1
										{
											OFFSET -23.655350 0.125290 -12.815412
											CHANNELS 3 Xrotation Yrotation Zrotation
											JOINT RightHandPinky2
											{
												OFFSET -8.425102 0.000000 0.000000
												CHANNELS 3 Xrotation Yrotation Zrotation
												JOINT RightHandPinky3
												{
													OFFSET -8.147003 0.000000 0.000000
													CHANNELS 3 Xrotation Yrotation Zrotation
													End Site
													{
														OFFSET 0.000000 0.000000 0.000000
													}
												}
											}
										}
									}
								}
							}
						}
					}
				}
			}
		}
	}
	JOINT LeftUpLeg
	{
		OFFSET 11.394100 -6.187798 -0.413800
		CHANNELS 3 Xrotation Yrotation Zrotation
		JOINT LeftLeg
		{
			OFFSET 0.430247 -32.302673 3.732800
			CHANNELS 3 Xrotation Yrotation Zrotation
			JOINT LeftFoot
			{
				OFFSET -0.430247 -48.264931 -6.423300
				CHANNELS 3 Xrotation Yrotation Zrotation
				JOINT LeftToeBase
				{
					OFFSET 4.230900 -16.068199 23.438400
					CHANNELS 3 Xrotation Yrotation Zrotation
					JOINT LeftToe_End
					{
						OFFSET 4.510700 0.695400 19.974600
						CHANNELS 3 Xrotation Yrotation Zrotation
						End Site
						{
							OFFSET 0.000000 0.000000 0.000000
						}
					}
				}
			}
		}
	}
	JOINT RightUpLeg
	{
		OFFSET -11.333700 -6.187798 -0.413800
		CHANNELS 3 Xrotation Yrotation Zrotation
		JOINT RightLeg
		{
			OFFSET -0.430392 -32.302628 3.733000
			CHANNELS 3 Xrotation Yrotation Zrotation
			JOINT RightFoot
			{
				OFFSET 0.430392 -48.264973 -6.423500
				CHANNELS 3 Xrotation Yrotation Zrotation
				JOINT RightToeBase
				{
					OFFSET -4.230900 -16.068199 23.438400
					CHANNELS 3 Xrotation Yrotation Zrotation
					JOINT RightToe_End
					{
						OFFSET -4.510700 0.695400 19.974600
						CHANNELS 3 Xrotation Yrotation Zrotation
						End Site
						{
							OFFSET 0.000000 0.000000 0.000000
						}
					}
				}
			}
		}
	}
}
MOTION
Frames: 4
Frame Time: 0.016667
-0.204582 12.205673 -2.179619 -86.967098 -3.619976 -0.486854 0.061549 2.078122 -1.944868 -2.894322 0.722157 -0.032029 0.000000 0.000000 0.000000 -2.892155 0.750138 -0.008815 4.260102 0.456928 0.133952 4.823574 3.550530 10.429252 -0.000000 -0.000000 0.000000 1.575212 -15.462655 -0.386114 0.000000 0.000000 0.000000 21.370851 -1.052531 -73.139141 -0.000008 -137.558453 -0.000000 -17.216069 17.260907 -40.864899 -7.747745 -16.408833 12.046784 7.558170 31.509548 -3.040784 -10.327320 16.515338 14.878076 0.000001 0.000003 -0.000002 0.259311 3.223718 10.217951 0.789879 2.939701 -30.073692 -0.000000 0.000000 0.000000 -0.267159 2.447521 18.123145 0.825494 3.000284 -30.761089 0.000001 -0.000000 -0.000000 -0.192991 1.876666 21.842784 0.923692 3.159206 -32.588728 -0.000000 0.000000 0.000001 -3.484233 5.349102 23.881637 0.640531 2.665502 -27.019988 0.000000 0.000000 -0.000001 0.537281 6.692239 0.071574 0.000000 0.000000 0.000000 17.297876 6.543542 66.743707 -0.000026 132.968074 0.000047 -16.839261 -11.628804 48.900698 -19.372324 9.812732 -17.628156 16.805759 -33.149118 6.482050 3.930032 -4.675019 -18.270496 -0.000003 0.000001 0.000002 -0.578707 -1.290234 19.415301 -0.000001 -0.000001 0.000021 0.000001 -0.000000 -0.000000 0.900195 -7.884224 9.062695 0.294484 -1.631370 20.463686 -0.000001 -0.000001 0.000000 0.740067 -10.091159 4.911394 1.354386 -3.285246 44.799966 -0.000000 -0.000001 0.000003 0.507050 -5.672359 8.465992 1.111095 -3.020975 40.379064 -0.000001 0.000001 -0.000000 -26.071052 15.385428 -5.545209 23.420384 -6.809977 -9.270116 3.399338 9.667774 6.425644 -0.274334 -0.000004 -0.000002 0.000000 0.000001 0.000000 -7.449586 -10.388103 -0.841545 0.891070 -3.989872 5.479673 14.859695 -4.291824 28.108990 -2.161817 -0.000004 0.000005 0.000002 0.000001 0.000002 
-0.205451 12.207466 -2.173508 -86.973068 -3.621104 -0.489700 0.065885 2.068430 -1.935047 -2.899782 0.719093 -0.031225 0.000000 0.000000 0.000000 -2.897558 0.747077 -0.008095 4.272380 0.440566 0.143374 4.853059 3.381548 10.433355 0.000000 0.000000 0.000000 1.572100 -15.451425 -0.406928 0.000000 0.000000 0.000000 21.322423 -0.990312 -73.108405 -0.000001 -137.648912 -0.000008 -16.964906 17.158770 -40.725061 -7.677268 -16.481617 12.448416 7.558170 31.509551 -3.040783 -10.327319 16.515336 14.878080 -0.000001 -0.000001 -0.000003 0.216531 3.322621 9.268477 0.755086 2.878857 -29.388204 0.000001 -0.000000 0.000000 -0.267950 2.540369 17.341936 0.825490 3.000284 -30.761092 0.000000 0.000000 -0.000000 -0.202647 1.974539 21.008591 0.883420 3.095399 -31.850511 -0.000000 -0.000000 0.000000 -3.543194 5.418530 23.634317 0.608910 2.602631 -26.331952 0.000000 -0.000000 0.000000 0.542292 6.731887 0.071287 0.000000 0.000000 0.000000 17.280969 6.510340 66.772797 0.000005 132.980341 0.000001 -16.827520 -11.646465 48.903000 -19.372326 9.812731 -17.628155 16.805757 -33.149118 6.482050 3.930031 -4.675014 -18.270495 -0.000001 -0.000002 0.000002 -0.578707 -1.290234 19.415303 -0.000001 -0.000001 0.000021 0.000000 -0.000001 0.000000 0.900193 -7.884223 9.062696 0.294483 -1.631367 20.463684 -0.000000 -0.000001 -0.000001 0.740067 -10.091158 4.911394 1.354385 -3.285247 44.799966 0.000000 0.000000 0.000001 0.507050 -5.672359 8.465991 1.111095 -3.020974 40.379054 -0.000001 -0.000001 0.000002 -26.083815 15.385749 -5.535451 23.450485 -6.810018 -9.273764 3.387876 9.646295 6.428716 -0.272466 0.000001 0.000004 0.000000 -0.000000 0.000000 -7.428002 -10.387217 -0.838140 0.886563 -4.008120 5.477068 14.816297 -4.288487 28.131147 -2.138487 0.000002 -0.000007 -0.000000 -0.000000 -0.000000 
-0.205673 12.209312 -2.167252 -86.979112 -3.620744 -0.492807 0.072812 2.058995 -1.923871 -2.905655 0.716117 -0.029207 0.000000 0.000000 0.000000 -2.903444 0.744094 -0.006157 4.284338 0.424950 0.153656 4.886330 3.221609 10.436327 0.000000 0.000000 -0.000001 1.568782 -15.437778 -0.427669 0.000000 0.000000 0.000000 21.271641 -0.938648 -73.079992 0.000002 -137.717733 -0.000010 -16.836748 17.157155 -40.835696 -7.606056 -16.554690 12.852138 7.558170 31.509551 -3.040783 -10.327323 16.515339 14.878083 -0.000001 0.000001 0.000001 0.175407 3.423362 8.317327 0.720863 2.817305 -28.699471 0.000001 -0.000000 -0.000000 -0.267363 2.633420 16.559264 0.825492 3.000284 -30.761096 0.000000 -0.000000 0.000000 -0.210764 2.072766 20.172861 0.843784 3.030760 -31.108786 0.000000 -0.000000 0.000000 -3.600515 5.485849 23.389131 0.577901 2.539078 -25.640626 -0.000000 0.000000 0.000000 0.546424 6.771665 0.070984 0.000000 0.000000 0.000000 17.268882 6.484044 66.804236 0.000054 132.995996 -0.000029 -16.820429 -11.675024 48.886054 -19.372324 9.812730 -17.628153 16.805759 -33.149118 6.482052 3.930029 -4.675014 -18.270498 -0.000002 -0.000001 0.000002 -0.578706 -1.290235 19.415299 -0.000002 -0.000001 0.000020 0.000000 -0.000001 0.000000 0.900194 -7.884224 9.062697 0.294483 -1.631368 20.463684 -0.000001 -0.000001 0.000000 0.740067 -10.091160 4.911395 1.354386 -3.285246 44.799972 0.000000 0.000001 0.000003 0.507050 -5.672359 8.465991 1.111095 -3.020973 40.379061 -0.000002 -0.000001 0.000002 -26.096223 15.386111 -5.526148 23.480570 -6.809659 -9.277522 3.376488 9.623742 6.432369 -0.270422 -0.000006 -0.000001 0.000000 -0.000000 0.000002 -7.405677 -10.386673 -0.835346 0.881704 -4.028065 5.474808 14.772183 -4.285165 28.154593 -2.114026 0.000007 -0.000007 0.000001 0.000000 0.000001 
-0.205325 12.211037 -2.161064 -86.984850 -3.618830 -0.496044 0.081228 2.050805 -1.913036 -2.910612 0.713544 -0.026432 0.000000 0.000000 0.000000 -2.908353 0.741506 -0.003457 4.294633 0.409459 0.165082 4.917926 3.065240 10.438744 -0.000000 0.000000 0.000001 1.565683 -15.422391 -0.445049 0.000000 0.000000 0.000000 21.220998 -0.901427 -73.058285 0.000007 -137.753632 0.000022 -16.852075 17.263877 -41.211336 -7.535805 -16.626286 13.248369 7.558167 31.509548 -3.040780 -10.327319 16.515336 14.878080 0.000001 0.000000 0.000002 0.136836 3.523657 7.385382 0.688007 2.756518 -28.023749 0.000000 -0.000000 -0.000000 -0.265440 2.724614 15.792270 0.825491 3.000282 -30.761082 0.000002 -0.000000 -0.000000 -0.217211 2.169165 19.353896 0.805716 2.966848 -30.381108 -0.000000 -0.000000 -0.000001 -3.655687 5.551058 23.150130 0.548224 2.476362 -24.962393 -0.000000 0.000000 -0.000001 0.549118 6.804089 0.070729 0.000000 0.000000 0.000000 17.259755 6.469264 66.833101 0.000005 133.013235 -0.000001 -16.816564 -11.710434 48.858840 -19.372326 9.812730 -17.628150 16.805759 -33.149118 6.482046 3.930032 -4.675013 -18.270495 -0.000001 -0.000005 0.000002 -0.578707 -1.290234 19.415299 -0.000001 -0.000001 0.000020 0.000001 -0.000000 -0.000000 0.900194 -7.884222 9.062698 0.294482 -1.631367 20.463684 -0.000001 -0.000001 -0.000000 0.740065 -10.091158 4.911395 1.354385 -3.285246 44.799966 -0.000001 0.000002 0.000005 0.507048 -5.672359 8.465991 1.111094 -3.020974 40.379061 -0.000001 0.000000 0.000004 -26.107616 15.386468 -5.517740 23.508956 -6.808930 -9.281240 3.366152 9.600231 6.436628 -0.268055 0.000010 -0.000003 0.000000 0.000000 -0.000000 -7.382993 -10.386334 -0.833189 0.876266 -4.049168 5.472854 14.727382 -4.282457 28.179428 -2.088448 0.000005 0.000004 -0.000001 0.000000 -0.000001 
